<?xml version="1.0" standalone="no"?>
<!DOCTYPE svg PUBLIC "-//W3C//DTD SVG 20010904//EN"
 "http://www.w3.org/TR/2001/REC-SVG-20010904/DTD/svg10.dtd">
<svg version="1.0" xmlns="http://www.w3.org/2000/svg"
 width="960.000000pt" height="960.000000pt" viewBox="0 0 960.000000 960.000000"
 preserveAspectRatio="xMidYMid meet">
<metadata>
Created by potrace 1.11, written by Peter Selinger 2001-2013
</metadata>
<g transform="translate(0.000000,960.000000) scale(0.100000,-0.100000)"
fill="#000000" stroke="none">
<path d="M1200 8400 l0 -600 450 0 450 0 0 -1200 0 -1200 -750 0 -750 0 0
-150 0 -150 -150 0 -150 0 0 -300 0 -300 -150 0 -150 0 0 -1350 0 -1350 600 0
600 0 0 -900 0 -900 3600 0 3600 0 0 900 0 900 600 0 600 0 0 1350 0 1350
-150 0 -150 0 0 300 0 300 -150 0 -150 0 0 450 0 450 -150 0 -150 0 0 300 0
300 -150 0 -150 0 0 1200 0 1200 -3600 0 -3600 0 0 -600z m4500 -900 l0 -300
600 0 600 0 0 -300 0 -300 -300 0 -300 0 0 -300 0 -300 150 0 150 0 0 150 0
150 300 0 300 0 0 -150 0 -150 300 0 300 0 0 -150 0 -150 300 0 300 0 0 -450
0 -450 -150 0 -150 0 0 -150 0 -150 -150 0 -150 0 0 -150 0 -150 -900 0 -900
0 0 300 0 300 -150 0 -150 0 0 -150 0 -150 -600 0 -600 0 0 300 0 300 -150 0
-150 0 0 -300 0 -300 -600 0 -600 0 0 150 0 150 450 0 450 0 0 150 0 150 150
0 150 0 0 300 0 300 -150 0 -150 0 0 450 0 450 300 0 300 0 0 150 0 150 300 0
300 0 0 150 0 150 150 0 150 0 0 150 0 150 -150 0 -150 0 0 150 0 150 300 0
300 0 0 -300z m-2100 -1350 l0 -1050 -600 0 -600 0 0 -150 0 -150 150 0 150 0
0 -150 0 -150 -300 0 -300 0 0 -150 0 -150 -300 0 -300 0 0 150 0 150 -150 0
-150 0 0 150 0 150 -150 0 -150 0 0 150 0 150 750 0 750 0 0 1050 0 1050 600
0 600 0 0 -1050z m1500 -3300 l0 -150 -300 0 -300 0 0 150 0 150 300 0 300 0
0 -150z m0 -2100 l0 -150 -300 0 -300 0 0 150 0 150 300 0 300 0 0 -150z"/>
<path d="M5400 6900 l0 -300 150 0 150 0 0 -300 0 -300 150 0 150 0 0 -600 0
-600 150 0 150 0 0 600 0 600 -150 0 -150 0 0 300 0 300 -150 0 -150 0 0 300
0 300 -150 0 -150 0 0 -300z"/>
</g>
</svg>
